<?xml version="1.0" encoding="utf-8"?>
<!-- Generator: Adobe Illustrator 16.0.0, SVG Export Plug-In . SVG Version: 6.00 Build 0)  -->
<!DOCTYPE svg PUBLIC "-//W3C//DTD SVG 1.1//EN" "http://www.w3.org/Graphics/SVG/1.1/DTD/svg11.dtd">
<svg version="1.1" id="Layer_1" xmlns="http://www.w3.org/2000/svg" xmlns:xlink="http://www.w3.org/1999/xlink" x="0px" y="0px"
	 width="1450px" height="97px" viewBox="0 0 1450 97" enable-background="new 0 0 1450 97" xml:space="preserve">
<g id="Shape_10">
	<g>
		<path fill="#FFFFFF" d="M537.085,45.969c-0.51-4.256-5.103-3.005-5.103-3.005c-0.052-2.854-4.082-2.003-4.082-2.003
			c-1.021-3.305-4.082-1.002-4.082-1.002V33.95c-3.827-4.758-6.123,0-6.123,0v14.021c-9.439-3.755-6.123,4.007-6.123,4.007
			C518.717,56.986,520.758,65,520.758,65h13.266c-0.255-2.003,1.021-6.01,1.021-6.01C537.596,53.982,537.085,45.969,537.085,45.969z
			"/>
	</g>
</g>
<g id="Shape_11">
	<g>
		<path fill="#FFFFFF" d="M527.901,24.936c-9.389-7.612-16.328,1.002-16.328,1.002c-0.116,1.86,2.041,1.001,2.041,1.001
			c5.307-7.412,13.266-1.001,13.266-1.001c2.042,1.803,2.042,0,2.042,0L527.901,24.936z"/>
	</g>
</g>
<g id="Shape_11_copy">
	<g>
		<path fill="#FFFFFF" d="M526.101,27.293c-7.18-5.732-12.485,0.754-12.485,0.754c-0.089,1.401,1.561,0.754,1.561,0.754
			c4.059-5.581,10.146-0.754,10.146-0.754c1.56,1.358,1.56,0,1.56,0L526.101,27.293z"/>
	</g>
</g>
<g id="Shape_11_copy_2">
	<g>
		<path fill="#FFFFFF" d="M525.26,29.718c-5.522-4.266-9.604,0.562-9.604,0.562c-0.068,1.042,1.201,0.561,1.201,0.561
			c3.122-4.153,7.804-0.561,7.804-0.561c1.2,1.009,1.2,0,1.2,0L525.26,29.718z"/>
	</g>
</g>
<g>
	<path fill="#476079" d="M148.125,16.75c-11.945,0-21.625,9.221-21.625,20.594c0,19.663,21.625,45.307,21.625,45.307
		s21.625-25.644,21.625-45.307C169.75,25.971,160.067,16.75,148.125,16.75z M148.125,48.712c-6.45,0-11.677-4.979-11.677-11.121
		c0-6.142,5.227-11.121,11.677-11.121c6.448,0,11.677,4.979,11.677,11.121C159.802,43.732,154.573,48.712,148.125,48.712z"/>
</g>
<g>
	<g>
		<g>
			<g>
				<g>
					<path fill="#475F79" d="M213.75,25.175c13.274,0,24.075,10.8,24.075,24.075c0,13.275-10.8,24.075-24.075,24.075
						s-24.075-10.802-24.075-24.075C189.675,35.976,200.476,25.175,213.75,25.175 M213.75,22.5C198.978,22.5,187,34.476,187,49.25
						C187,64.025,198.978,76,213.75,76c14.775,0,26.75-11.975,26.75-26.75C240.5,34.476,228.525,22.5,213.75,22.5L213.75,22.5z"/>
				</g>
			</g>
		</g>
	</g>
	<g id="g1941">
		<path id="path1943" fill="#475F79" d="M203.607,32.797c-1.529,1.058-5.986,6.944,1.346,20.975
			c7.724,14.778,15.654,14.49,17.28,13.574l-5.222-9.697c-1.353,0.729-2.419-0.6-4.364-3.472c-1.288-1.901-2.688-4.36-3.757-6.977
			c-0.749-1.836-1.339-3.705,0.078-4.468L203.607,32.797z"/>
		<path id="path1945" fill="#475F79" d="M225.73,65.482c0.626-0.338,0.801-1.09,0.494-1.662l0.001-0.008
			c0,0-4.074-7.556-4.077-7.559c-0.322-0.602-1.063-0.811-1.653-0.492l-2.747,1.479l5.235,9.72c0,0,2.742-1.471,2.744-1.474
			L225.73,65.482z"/>
		<path id="path1947" fill="#475F79" d="M212.465,40.849c0.627-0.338,0.802-1.091,0.494-1.663l0.002-0.007
			c0,0-4.191-7.773-4.193-7.778c-0.324-0.6-1.064-0.811-1.655-0.492l-2.747,1.479l5.352,9.939c0,0,2.743-1.471,2.744-1.475
			L212.465,40.849z"/>
	</g>
</g>
<path fill="#475F79" d="M304.828,30.001h-49.062h-0.425h-1.033h-0.711V68.74H307V30.001h-1.847H304.828z M302.692,32.422
	l-20.631,23.385c-0.941,1.064-2.583,1.064-3.523,0l-20.635-23.385H302.692z M255.733,33.387l14.871,16.745l-14.871,16.746V33.387z
	 M259.438,66.318l12.678-14.473l4.912,5.674c0.873,0.989,2.035,1.532,3.271,1.532c1.236,0,2.399-0.543,3.272-1.532l4.912-5.677
	l12.677,14.476h-43.722H259.438z M304.865,66.88l-14.871-16.748l14.871-16.748v31.443V66.88z"/>
<g id="Shape_2">
	<g>
		<polygon fill="#476079" points="349.615,54.914 349.615,49.01 345.68,49.01 345.68,54.379 344.695,57.95 347.647,63.77 
			350.6,57.865 		"/>
	</g>
</g>
<g id="Shape_1">
	<g>
		<path fill="#476079" d="M338.792,49.01C327.968,51.225,326,67.705,326,67.705h19.68L338.792,49.01z"/>
	</g>
</g>
<g id="Shape_1_copy">
	<g>
		<path fill="#476079" d="M356.503,49.01l-6.888,18.695h19.68C369.295,67.705,367.327,51.225,356.503,49.01z"/>
	</g>
</g>
<g id="Ellipse_1">
	<g>
		<circle fill="#476079" cx="347.647" cy="35.234" r="10.824"/>
	</g>
</g>
<g transform="translate(0 -1028.4)">
	<path fill="#475F79" d="M481.25,1064.255c0,5.983-4.691,10.832-10.479,10.832s-10.479-4.848-10.479-10.832
		s4.692-10.832,10.479-10.832C476.559,1053.422,481.25,1058.271,481.25,1064.255z"/>
	<path fill="#475F79" d="M470.393,1071.367c-2.375,0-4.639,0.638-6.683,1.776c-5.368,2.989-9.258,9.47-9.938,17.175
		c0,2.617,1.549,4.737,3.603,4.737h26.036c2.056,0,3.603-2.12,3.603-4.737c-0.679-7.705-4.571-14.186-9.937-17.175
		C475.031,1072.005,472.769,1071.367,470.393,1071.367z"/>
</g>
<polygon fill="#475F79" stroke="#FFFFFF" stroke-miterlimit="10" points="491.07,41.021 478.064,54.027 471.872,47.836 
	468.338,51.379 478.064,61.105 494.604,44.556 "/>
<g>
	<path fill="#FFFFFF" d="M28.326,58.794v6.295c0,0.157,0.142,0.285,0.318,0.285h5.068v-3.287h2.526v3.287h5.534
		c0.176,0,0.318-0.128,0.318-0.285v-6.295l-6.878-6.165L28.326,58.794z"/>
	<path fill="#FFFFFF" d="M29.85,53.904l-2.917,2.625c-0.356,0.32-0.356,0.838,0,1.156c0.177,0.162,0.411,0.24,0.643,0.24
		c0.232,0,0.465-0.078,0.643-0.24l6.992-6.291l6.991,6.291c0.355,0.32,0.931,0.32,1.285,0c0.354-0.318,0.354-0.836,0-1.156
		l-8.276-7.448l-3.905,3.515"/>
</g>
<g id="Shape_2_2_">
	<g>
		<path fill="#FFFFFF" d="M86.145,51.033c-10.888-1.335-12.061,5.011-12.061,5.011c-0.67,5.845,7.036,6.011,7.036,6.011v4.008
			l5.025-4.008C81.454,56.377,86.145,51.033,86.145,51.033z"/>
	</g>
</g>
<g id="Shape_1_2_">
	<g>
		<path fill="#FFFFFF" d="M98.205,49.029c-11.893,0.335-12.061,7.015-12.061,7.015c-0.838,5.677,7.035,8.015,7.035,8.015l5.026,5.01
			v-5.01c10.05-0.668,10.05-7.013,10.05-7.013C108.758,50.366,98.205,49.029,98.205,49.029z"/>
	</g>
</g>
<path fill="#2D2D2D" d="M97.067,20.167H77.884h-0.167h-0.403h-0.278v14.667h20.881V20.167h-0.722H97.067z M96.232,21.083
	l-8.067,8.854c-0.368,0.403-1.01,0.403-1.378,0l-8.068-8.854H96.232z M77.871,21.448l5.423,5.951l-5.423,5.952V21.448z
	 M78.538,33.917l5.348-5.869l2.311,2.537c0.342,0.375,0.796,0.582,1.28,0.582s0.938-0.208,1.279-0.582l2.312-2.537l5.348,5.869
	H78.538L78.538,33.917z M97.082,33.352l-5.423-5.953l5.423-5.953V33.352L97.082,33.352z"/>
<g id="Shape_1_4_">
	<g>
		<polygon fill="#FFFFFF" points="33.319,17.005 31.992,17.005 38.347,23.324 31.992,29.642 33.319,29.642 39.674,23.324 		"/>
	</g>
</g>
<g id="Rounded_Rectangle_1">
	<g>
		<path fill="#476079" d="M432.353,26.161h-38.02c-2.945,0-5.333,2.397-5.333,5.354v22.491c0,2.956,2.388,5.354,5.333,5.354h15.198
			L411.397,69l7.732-9.639h13.224c2.945,0,5.333-2.398,5.333-5.354V31.516C437.686,28.559,435.298,26.161,432.353,26.161z"/>
	</g>
</g>
<g id="Rectangle_1_1_">
	<g>
		<rect x="397.216" y="33.446" fill="#FFFFFF" width="33.678" height="2.741"/>
	</g>
</g>
<g id="Rectangle_1_copy_2_1_">
	<g>
		<rect x="397.216" y="39.831" fill="#FFFFFF" width="33.678" height="2.741"/>
	</g>
</g>
<g id="Rectangle_1_copy_3">
	<g>
		<rect x="397.216" y="46.408" fill="#FFFFFF" width="25.14" height="2.742"/>
	</g>
</g>
</svg>
